#N canvas 683 141 571 655 10;
#X obj 115 145 unpack 0 0 0 0;
#X floatatom 115 169 3 0 0 0 - - -;
#X floatatom 155 169 3 0 0 0 - - -;
#X floatatom 195 169 3 0 0 0 - - -;
#X floatatom 236 169 3 0 0 0 - - -;
#X obj 13 148 unpackOSC;
#X obj 13 123 udpreceive 9000;
#X obj 13 199 routeOSC /ready /words;
#X obj 149 228 list;
#X obj 149 249 list.concatenate;
#X obj 16 71 shell;
#X obj 149 271 list.unfold;
#N canvas 907 24 450 300 \$0.sphinxpatcher 1;
#X restore 149 343 pd \$0.sphinxpatcher;
#X msg 60 71 clear;
#X obj 149 318 send pd-\$0.sphinxpatcher;
#X msg 149 294 obj 20 20 \$1;
#X obj 15 402 env~;
#X obj 68 473 once;
#X obj 68 450 t b;
#X msg 68 495 start;
#X msg 114 492 stop;
#X obj 97 450 del 400;
#X obj 173 524 shell;
#X obj 114 535 del 5;
#X obj 114 514 t b;
#X obj 91 425 bng 15 250 50 0 empty empty empty 17 7 0 10 -262144 -1
-1;
#X floatatom 68 407 5 0 0 0 - - -;
#X obj 68 562 writesf~ 1;
#X msg 173 483 sox /tmp/r.wav -r 16000 -c 1 -s -w /tmp/r16k.raw;
#X msg 205 563 open -bytes 3 /tmp/r.wav;
#X text 66 388 noise threshold;
#X obj 246 293 r cdp;
#X obj 60 91 s cdp;
#X obj 13 227 print processing;
#X obj 16 -13 r lps;
#X obj 232 529 s lps;
#X obj 16 379 adc~ 1;
#X obj 15 426 moses 60;
#X obj 470 94 loadbang;
#X msg 470 120 \; pd dsp 1 \;;
#X obj 16 28 file.path.current;
#X msg 16 7 sphinx2osc.py;
#X msg 16 49 python \$1;
#X floatatom 143 429 5 0 0 0 - - -;
#X text 183 428 stop after;
#X obj 246 273 print;
#X text 147 27 you don't have pdmtl abstractions...;
#X text 146 41 then use a message with full path to sphinx2osc.py;
#X text 157 451 a better solution would be to hold the spacebar;
#X text 247 -9 send any modifition to: puredata@11h11.com;
#X text 180 199 dic/pd.dic for the list of words you can speak;
#X connect 0 0 1 0;
#X connect 0 1 2 0;
#X connect 0 2 3 0;
#X connect 0 3 4 0;
#X connect 5 0 7 0;
#X connect 6 0 5 0;
#X connect 6 1 0 0;
#X connect 7 0 33 0;
#X connect 7 1 8 0;
#X connect 8 0 9 0;
#X connect 9 0 11 0;
#X connect 11 0 15 0;
#X connect 11 0 45 0;
#X connect 13 0 32 0;
#X connect 15 0 14 0;
#X connect 16 0 37 0;
#X connect 17 0 19 0;
#X connect 18 0 17 0;
#X connect 18 0 21 0;
#X connect 19 0 27 0;
#X connect 20 0 27 0;
#X connect 20 0 24 0;
#X connect 21 0 17 1;
#X connect 21 0 20 0;
#X connect 22 1 29 0;
#X connect 22 1 35 0;
#X connect 23 0 28 0;
#X connect 24 0 23 0;
#X connect 26 0 37 1;
#X connect 28 0 22 0;
#X connect 29 0 27 0;
#X connect 31 0 14 0;
#X connect 34 0 41 0;
#X connect 36 0 16 0;
#X connect 36 0 27 0;
#X connect 37 1 18 0;
#X connect 37 1 25 0;
#X connect 38 0 39 0;
#X connect 40 0 42 0;
#X connect 41 0 40 0;
#X connect 42 0 10 0;
#X connect 42 0 13 0;
#X connect 43 0 21 1;
